# xmcd
#
# Track frame offsets:
#	150
#	12330
#	26102
#	38332
#	51630
#	65910
#	85505
#	99910
#	112522
#	125372
#	141012
#	155490
#	163230
#	177342
#	188737
#	203590
#	217790
#	231950
#	249670
#	265497
#	286282
#	304530
#	313637
#	328730
#	338125
#
# Disc length: 4673 seconds
#
# Revision: 1
# Processed by: cddbd v1.5.1PL2 Copyright (c) Steve Scherf et al.
# Submitted via: audiograbber 1.83.01
#
DISCID=5b123f19
DTITLE=Various Artist - The Dutch Country Top 100 vol 1-4
DYEAR=1900
DGENRE=Country
TTITLE0=Savannah - Rock the boat
TTITLE1=Ilse Delange and Cash On Delivery - Oklahoma Swing
TTITLE2=Moonlight Riders - Endless Road
TTITLE3=Major Dundee - Twist the dial
TTITLE4=Jany Szabo - So sad
TTITLE5=Early Bird - Lonesome road to nowhere
TTITLE6=Kees Versluys - Honky Tonk Ball
TTITLE7=Tulsa - Don't it make my brown eyes blue
TTITLE8=Dixy Aces - Act Naturaly
TTITLE9=Texas Renegade - You told me not to drink
TTITLE10=Stroatklinkers, de - Op de kovvie
TTITLE11=Lafayette - The bachelors live
TTITLE12=Frank Jansen - If you ever need a fool
TTITLE13=Sommerset - Nashville Tennessee
TTITLE14=Savannah and Ruud Hermans - Neven knew lonely
TTITLE15=Walkers - Wasn't born in Tennessee
TTITLE16=Jany Szabo - Whatever way the wind blows
TTITLE17=Cash on Delivery - No more you
TTITLE18=Ruud Hermans - Blue Horizon
TTITLE19=Lee Towers - Once upon a time in the west
TTITLE20=Jony de Boer - Mama is on the road again
TTITLE21=Koos Bloemsma - Goldrush (instrumentaal)
TTITLE22=Outbound - The roots run deep
TTITLE23=Desperado - Still in love with you
TTITLE24=Frans Doolaard - Home on the range
EXTD=
EXTT0=
EXTT1=
EXTT2=
EXTT3=
EXTT4=
EXTT5=
EXTT6=
EXTT7=
EXTT8=
EXTT9=
EXTT10=
EXTT11=
EXTT12=
EXTT13=
EXTT14=
EXTT15=
EXTT16=
EXTT17=
EXTT18=
EXTT19=
EXTT20=
EXTT21=
EXTT22=
EXTT23=
EXTT24=
PLAYORDER=
